#!OML:ASF \\Waltz\H\Terrain\Patient Classification 1\Animal2\Wednesday\Animal2.ASF
:FULLY-SPECIFIED
:DEGREES
1868
root 9.19849 16.0749 -14.2093 0.294519 2.34049 -5.0824
lowerback 7.89326 -0.193884 1.76588
upperback -0.274319 -0.0313828 1.28501
thorax -4.71571 -0.0425021 0.344714
lowerneck 1.68158 8.7792 16.4283
upperneck 10.3271 13.5947 -18.478
head 5.19346 6.72035 -7.82405
rclavicle 5.64051e-015 1.03368e-014
rhumerus -8.67479 -23.9628 -11.8233
rradius 34.5832
rwrist 9.00878
rhand -20.6201 12.1914
rfingers 7.12502
rthumb 5.74118 -17.7108
lclavicle 5.64051e-015 1.03368e-014
lhumerus -27.8117 5.52532 0.490957
lradius 38.458
lwrist 24.3615
lhand -26.0753 32.1168
lfingers 7.12502
lthumb 0.473039 62.096
rfemur -26.2936 -21.7358 27.7374
rtibia 60.6831
rfoot -37.2763 -6.68233
rtoes 4.68874
lfemur -27.0961 24.8273 -14.2866
ltibia 64.0366
lfoot -36.5412 0.784195
ltoes -10.5445
1869
root 9.1982 16.0613 -14.2217 0.194801 2.43763 -5.19231
lowerback 8.10605 -0.19222 1.81387
upperback -0.236145 -0.0210224 1.25136
thorax -4.79579 -0.0392345 0.282224
lowerneck 1.5631 8.76135 16.5445
upperneck 10.747 13.6003 -18.4129
head 5.34545 6.71759 -7.8177
rclavicle -1.45361e-014 5.56597e-015
rhumerus -8.91155 -23.8435 -12.1261
rradius 34.6151
rwrist 9.16258
rhand -19.7931 12.5046
rfingers 7.12502
rthumb 6.53958 -17.3744
lclavicle -1.45361e-014 5.56597e-015
lhumerus -27.8438 4.96522 1.12238
lradius 38.9038
lwrist 24.5676
lhand -25.9259 32.002
lfingers 7.12502
lthumb 0.61727 61.9809
rfemur -26.2822 -21.7009 27.8692
rtibia 60.7919
rfoot -37.2428 -7.00932
rtoes 4.47565
lfemur -27.1608 24.7897 -14.1452
ltibia 64.2175
lfoot -36.5633 0.760394
ltoes -11.0649
1870
root 9.1992 16.0577 -14.2351 0.176987 2.4644 -5.45805
lowerback 8.2114 -0.198628 2.05129
upperback -0.180863 -0.00425011 1.26163
thorax -4.79755 -0.0363582 0.157606
lowerneck 1.75588 8.70304 16.5563
upperneck 10.7369 13.5506 -18.4801
head 5.30461 6.70151 -7.85793
rclavicle 1.22501e-014 1.82882e-014
rhumerus -8.95135 -23.9086 -12.5446
rradius 34.4599
rwrist 9.37257
rhand -19.1204 13.0677
rfingers 7.12502
rthumb 7.1889 -16.7902
lclavicle 1.22501e-014 1.82882e-014
lhumerus -27.8914 4.63434 1.75648
lradius 39.2219
lwrist 24.5819
lhand -25.571 31.9539
lfingers 7.12502
lthumb 0.960072 61.9315
rfemur -26.3816 -21.6248 28.2121
rtibia 60.8619
rfoot -37.2571 -7.01765
rtoes 5.96053
lfemur -27.3286 24.7897 -13.8794
ltibia 64.3517
lfoot -36.3766 0.807595
ltoes -11.3622
1871
root 9.19818 16.0619 -14.2408 0.137484 2.44917 -5.56412
lowerback 8.27914 -0.190682 2.13827
upperback -0.121692 0.0128369 1.20594
thorax -4.77373 -0.0302212 0.0487294
lowerneck 1.74112 8.65601 16.5245
upperneck 11.1699 13.5257 -18.3681
head 5.42296 6.6848 -7.8203
rclavicle 5.91384e-015 7.95139e-016
rhumerus -8.95056 -24.1169 -13.052
rradius 34.112
rwrist 9.70595
rhand -18.8699 13.7296
rfingers 7.12502
rthumb 7.43076 -16.1199
lclavicle 5.91384e-015 7.95139e-016
lhumerus -27.9198 4.3321 2.39777
lradius 39.4909
lwrist 24.4525
lhand -25.8471 31.8525
lfingers 7.12502
lthumb 0.693446 61.8311
rfemur -26.4193 -21.4801 28.3675
rtibia 60.8942
rfoot -37.3113 -7.25644
rtoes 6.88802
lfemur -27.3685 24.8478 -13.7603
ltibia 64.4105
lfoot -36.1667 1.20121
ltoes -12.0055
1872
root 9.19806 16.0638 -14.2439 0.105811 2.45233 -5.39789
lowerback 8.32575 -0.181195 1.93641
upperback -0.0689736 -0.000338468 1.07373
thorax -4.74484 -0.0330639 0.0263083
lowerneck 1.47794 8.671 16.5143
upperneck 11.8984 13.5631 -18.0421
head 5.67415 6.69055 -7.69649
rclavicle -1.71949e-014 1.70955e-014
rhumerus -9.08332 -23.9237 -13.5263
rradius 33.9362
rwrist 9.82337
rhand -18.4558 14.0599
rfingers 7.12502
rthumb 7.83044 -15.7751
lclavicle -1.71949e-014 1.70955e-014
lhumerus -27.9917 3.97369 2.99317
lradius 39.7762
lwrist 24.1731
lhand -25.8542 31.3345
lfingers 7.12502
lthumb 0.686567 61.3131
rfemur -26.4042 -21.3932 28.1793
rtibia 60.8995
rfoot -37.2636 -7.51257
rtoes 6.57857
lfemur -27.2908 24.8443 -13.9375
ltibia 64.3888
lfoot -36.2896 1.17119
ltoes -11.8294
1873
root 9.2021 16.062 -14.2507 0.143352 2.55637 -5.44125
lowerback 8.30925 -0.226315 1.98736
upperback -0.00543136 -0.0607129 1.0012
thorax -4.67021 -0.0641114 -0.0705823
lowerneck 1.24814 8.69695 16.4592
upperneck 12.3976 13.5912 -17.7433
head 5.84787 6.69457 -7.5752
rclavicle -4.94477e-015 2.18663e-014
rhumerus -9.31764 -23.3922 -13.9936
rradius 34.0267
rwrist 9.73268
rhand -17.3511 13.7563
rfingers 7.12502
rthumb 8.89653 -16.0361
lclavicle -4.94477e-015 2.18663e-014
lhumerus -28.1163 3.58526 3.58307
lradius 40.0373
lwrist 23.924
lhand -24.963 30.8502
lfingers 7.12502
lthumb 1.54733 60.8243
rfemur -26.4361 -21.413 28.2345
rtibia 60.8378
rfoot -37.1851 -7.66365
rtoes 5.30238
lfemur -27.3689 24.6609 -13.9473
ltibia 64.3759
lfoot -36.3969 0.498068
ltoes -10.093
1874
root 9.20514 16.0629 -14.2593 0.138878 2.72481 -5.66101
lowerback 8.41559 -0.280452 2.18635
upperback 0.0126263 -0.110559 1.0005
thorax -4.71257 -0.0935362 -0.176663
lowerneck 1.24759 8.66673 16.5015
upperneck 12.7777 13.5776 -17.6135
head 5.95618 6.69023 -7.54332
rclavicle -3.42904e-015 1.59028e-015
rhumerus -9.58572 -23.1342 -14.3903
rradius 34.0302
rwrist 10.0834
rhand -15.6664 13.6657
rfingers 7.12502
rthumb 10.522 -16.051
lclavicle -3.42904e-015 1.59028e-015
lhumerus -28.205 3.06443 4.27023
lradius 40.2351
lwrist 23.5102
lhand -24.0696 30.7505
lfingers 7.12502
lthumb 2.41015 60.7166
rfemur -26.4061 -21.3718 28.5087
rtibia 60.7075
rfoot -37.18 -7.98494
rtoes 4.17555
lfemur -27.4855 24.5016 -13.7533
ltibia 64.3796
lfoot -36.2813 0.613915
ltoes -10.5384
1875
root 9.20516 16.0648 -14.2659 0.103307 2.71355 -5.67347
lowerback 8.55686 -0.252288 2.11419
upperback 0.0269854 -0.0778382 0.965443
thorax -4.77628 -0.0765053 -0.176131
lowerneck 1.27371 8.65331 16.5645
upperneck 13.179 13.586 -17.438
head 6.06937 6.70108 -7.49827
rclavicle -2.90723e-015 5.96354e-015
rhumerus -9.86053 -23.0491 -14.705
rradius 33.93
rwrist 10.7909
rhand -14.3516 14.0088
rfingers 7.12502
rthumb 11.7901 -15.6394
lclavicle -2.90723e-015 5.96354e-015
lhumerus -28.2404 2.64107 5.00147
lradius 40.3308
lwrist 22.9181
lhand -23.8757 30.8286
lfingers 7.12502
lthumb 2.59737 60.7925
rfemur -26.2716 -21.163 28.5357
rtibia 60.5243
rfoot -37.2015 -8.05176
rtoes 4.48903
lfemur -27.4615 24.5638 -13.7479
ltibia 64.3462
lfoot -36.1531 1.20093
ltoes -12.2234
1876
root 9.20811 16.0691 -14.2708 0.134544 2.64008 -5.75148
lowerback 8.55311 -0.227505 2.15186
upperback 0.0794684 -0.0435367 0.94016
thorax -4.71879 -0.0599668 -0.228101
lowerneck 1.03631 8.71776 16.4001
upperneck 13.7279 13.6532 -17.0185
head 6.25313 6.7252 -7.31349
rclavicle -3.77691e-015 -1.39149e-014
rhumerus -10.0334 -22.8182 -15.0925
rradius 33.8001
rwrist 11.3912
rhand -13.458 14.2378
rfingers 7.12502
rthumb 12.6517 -15.359
lclavicle -3.77691e-015 -1.39149e-014
lhumerus -28.3429 2.24688 5.67693
lradius 40.4428
lwrist 22.7068
lhand -23.8934 30.641
lfingers 7.12502
lthumb 2.58036 60.6051
rfemur -26.1579 -20.9805 28.6226
rtibia 60.2771
rfoot -37.2104 -7.58047
rtoes 6.25314
lfemur -27.4722 24.6197 -13.7046
ltibia 64.2804
lfoot -36.1447 1.6233
ltoes -12.9434
1877
root 9.21288 16.0833 -14.2749 0.175474 2.70531 -5.98758
lowerback 8.49452 -0.234387 2.36423
upperback 0.135173 -0.0329092 0.978835
thorax -4.62782 -0.05794 -0.308945
lowerneck 0.837168 8.73022 16.09
upperneck 14.2733 13.6517 -16.576
head 6.4048 6.71275 -7.10699
rclavicle 1.2921e-015 1.43125e-014
rhumerus -10.1769 -22.6866 -15.4008
rradius 33.5776
rwrist 12.1048
rhand -12.0212 14.5868
rfingers 7.12502
rthumb 14.0365 -14.9192
lclavicle 1.2921e-015 1.43125e-014
lhumerus -28.4621 1.85848 6.3069
lradius 40.5042
lwrist 22.2179
lhand -23.059 29.7859
lfingers 7.12502
lthumb 3.38613 59.7387
rfemur -26.0622 -20.9768 28.884
rtibia 59.9636
rfoot -37.135 -7.08883
rtoes 7.66842
lfemur -27.5201 24.5009 -13.5039
ltibia 64.1449
lfoot -36.1678 1.96914
ltoes -13.3262
1878
root 9.21635 16.1077 -14.2791 0.274218 2.78518 -6.0167
lowerback 8.39751 -0.211654 2.38819
upperback 0.162052 -0.00652859 0.928093
thorax -4.54465 -0.0450261 -0.378686
lowerneck 0.884565 8.6562 16.0058
upperneck 14.5798 13.5587 -16.3556
head 6.45431 6.67271 -7.03381
rclavicle 1.35671e-014 -1.27222e-014
rhumerus -10.4757 -22.4144 -15.6232
rradius 33.4307
rwrist 12.7084
rhand -10.1933 15.1133
rfingers 7.12502
rthumb 15.7975 -14.2621
lclavicle 1.35671e-014 -1.27222e-014
lhumerus -28.5154 1.45028 6.88725
lradius 40.5646
lwrist 21.462
lhand -22.0826 28.8269
lfingers 7.12502
lthumb 4.32902 58.7626
rfemur -26.0484 -21.0047 28.9367
rtibia 59.6165
rfoot -36.9501 -6.93933
rtoes 7.61263
lfemur -27.5683 24.322 -13.5748
ltibia 63.8992
lfoot -36.1263 2.24922
ltoes -13.3337
1879
root 9.22015 16.1376 -14.2816 0.475113 2.76574 -5.77617
lowerback 8.26165 -0.169506 2.1699
upperback 0.162176 0.0166444 0.764168
thorax -4.46736 -0.0299153 -0.42926
lowerneck 0.987208 8.64447 16.0603
upperneck 14.7226 13.5374 -16.1576
head 6.46805 6.67779 -6.98342
rclavicle -6.4605e-015 5.56597e-015
rhumerus -10.7858 -22.0228 -15.9496
rradius 33.4301
rwrist 13.1975
rhand -8.28785 15.46
rfingers 7.12502
rthumb 17.6319 -13.7605
lclavicle -6.4605e-015 5.56597e-015
lhumerus -28.664 0.784664 7.5318
lradius 40.921
lwrist 21.3574
lhand -22.2225 28.7663
lfingers 7.12502
lthumb 4.19395 58.7048
rfemur -26.1136 -20.967 28.7213
rtibia 59.2491
rfoot -36.7173 -7.12521
rtoes 6.78859
lfemur -27.6293 24.2172 -13.9934
ltibia 63.5582
lfoot -36.0709 2.41577
ltoes -12.8407
